# xmcd
#
# Track frame offsets:
#	150
#	14209
#	29952
#	51232
#	70506
#	85286
#	98162
#	115527
#	128156
#	145415
#	161925
#	182834
#	195050
#	212361
#	225989
#	245027
#	260575
#	274193
#	291407
#
# Disc length: 3893 seconds
#
# Revision: 1
# Processed by: cddbd v1.5.2PL0 Copyright (c) Steve Scherf et al.
# Submitted via: audiograbber 1.83.01
#
DISCID=1c0f3313
DTITLE=Various Artist - CDX 436
DYEAR=2007
DGENRE=Country
TTITLE0=Miranda Lambert - Gunpowder and lead
TTITLE1=Terri Clark - In my next life
TTITLE2=Alan Jackson - Small town Southern man
TTITLE3=Tim McGraw - Suspicions
TTITLE4=Whiskey Falls - Falling into you
TTITLE5=Mark Chesnutt - Rollin' with the flow
TTITLE6=Lila McCann - That's what angels do
TTITLE7=Bryan Fontenot - Trailor park pulp fiction
TTITLE8=Emma Mae Jacob - What if we fly
TTITLE9=The Song Trust - Bring him home Santa
TTITLE10=Richie McDonald w. Jim Brickman - Coming home for Christmas
TTITLE11=Toby Keith - Let it snow, let it snow, let it snow
TTITLE12=Toby Keith - Little drummer boy
TTITLE13=Carter's Chord - O come, o come Emmanuel
TTITLE14=Jerry Redd - Christmas at the mall
TTITLE15=Judy Akin - Christmas needs love to be Christmas
TTITLE16=Joshua Motohashi - Sleigh ride
TTITLE17=Les Richardson - That's why I come home
TTITLE18=Bellamy Brothers - Christmas greeting
EXTD=
EXTT0=
EXTT1=
EXTT2=
EXTT3=
EXTT4=
EXTT5=
EXTT6=
EXTT7=
EXTT8=
EXTT9=
EXTT10=
EXTT11=
EXTT12=
EXTT13=
EXTT14=
EXTT15=
EXTT16=
EXTT17=
EXTT18=
PLAYORDER=
